<?xml version="1.0" encoding="utf-8"?>
<!-- Generator: Adobe Illustrator 22.1.0, SVG Export Plug-In . SVG Version: 6.00 Build 0)  -->
<svg version="1.1" id="Слой_1" xmlns="http://www.w3.org/2000/svg" xmlns:xlink="http://www.w3.org/1999/xlink" x="0px" y="0px"
	 viewBox="0 0 612 792" style="enable-background:new 0 0 612 792;" xml:space="preserve">
<style type="text/css">
	.st0{fill:url(#SVGID_1_);}
	.st1{opacity:0.51;fill:url(#SVGID_2_);enable-background:new    ;}
	.st2{fill:url(#SVGID_3_);}
	.st3{opacity:0.98;fill:url(#SVGID_4_);enable-background:new    ;}
	.st4{opacity:0.38;fill:url(#SVGID_5_);enable-background:new    ;}
	.st5{opacity:0.4;fill:url(#SVGID_6_);enable-background:new    ;}
	.st6{opacity:0.48;fill:url(#SVGID_7_);enable-background:new    ;}
	.st7{fill:url(#SVGID_8_);}
	.st8{fill:url(#SVGID_9_);}
	.st9{fill:url(#SVGID_10_);}
	.st10{fill:url(#SVGID_11_);}
	.st11{fill:url(#SVGID_12_);}
	.st12{fill:url(#SVGID_13_);}
	.st13{fill:url(#SVGID_14_);}
</style>
<g>
	
		<linearGradient id="SVGID_1_" gradientUnits="userSpaceOnUse" x1="227.7603" y1="2125.3833" x2="227.7603" y2="1986.3346" gradientTransform="matrix(-1.0022 0 0 2.333 601.3614 -4411.2183)">
		<stop  offset="6.478944e-02" style="stop-color:#686868"/>
		<stop  offset="0.9979" style="stop-color:#686868"/>
	</linearGradient>
	<path class="st0" d="M351.1,528.1l0.4-283.8c0-11.7,9.3-21.4,19.9-21.4l4,0.2c0,0,19.3,1.5,19.7,21.1v283c0,5.3-8.9,20.2-22.8,20.1
		l0,0l0,0C360.2,547.3,351.1,537.8,351.1,528.1z"/>
	
		<linearGradient id="SVGID_2_" gradientUnits="userSpaceOnUse" x1="227.91" y1="2124.4404" x2="227.91" y2="1987.1062" gradientTransform="matrix(-1.0022 0 0 2.333 601.3614 -4411.2183)">
		<stop  offset="6.478944e-02" style="stop-color:#342417"/>
		<stop  offset="0.2372" style="stop-color:#675B52"/>
		<stop  offset="0.437" style="stop-color:#9D958F"/>
		<stop  offset="0.6203" style="stop-color:#C7C3BF"/>
		<stop  offset="0.7807" style="stop-color:#E6E4E2"/>
		<stop  offset="0.912" style="stop-color:#F8F8F7"/>
		<stop  offset="0.9979" style="stop-color:#FFFFFF"/>
	</linearGradient>
	<path class="st1" d="M351.9,526.3l0.4-280.4c0-11.6,9-21.2,19.1-21.2l3.8,0.2c0,0,18.4,1.4,18.8,20.8v279.5c0,6.9-8.5,20-21.8,19.9
		l0,0l0,0C360.7,545.1,352,535.7,351.9,526.3z"/>
	
		<linearGradient id="SVGID_3_" gradientUnits="userSpaceOnUse" x1="207.8042" y1="2055.7732" x2="247.8162" y2="2055.7732" gradientTransform="matrix(-1.0022 0 0 2.333 601.3614 -4411.2183)">
		<stop  offset="0" style="stop-color:#746E66"/>
		<stop  offset="0.7999" style="stop-color:#342417"/>
		<stop  offset="0.8387" style="stop-color:#342417"/>
		<stop  offset="0.902" style="stop-color:#18100A;stop-opacity:0.6022"/>
		<stop  offset="0.9573" style="stop-color:#060403;stop-opacity:0.255"/>
		<stop  offset="0.9979" style="stop-color:#000000;stop-opacity:0"/>
	</linearGradient>
	<path class="st2" d="M353,523.8l0.3-277.4l0,0l1.7-1.6l35.8-0.2c1.3,0,2.3,1,2.3,2.3l0,276.7l-1.4,1.6l-37.8-0.5l0,0L353,523.8
		L353,523.8z"/>
	
		<linearGradient id="SVGID_4_" gradientUnits="userSpaceOnUse" x1="340.2875" y1="2134.8879" x2="340.2875" y2="1996.6091" gradientTransform="matrix(-0.8875 0 0 2.2932 674.9552 -4352.3242)">
		<stop  offset="0" style="stop-color:#423C35"/>
		<stop  offset="5.083698e-02" style="stop-color:#423C35"/>
		<stop  offset="6.119156e-02" style="stop-color:#56493A"/>
		<stop  offset="7.443526e-02" style="stop-color:#5B534B"/>
		<stop  offset="0.1487" style="stop-color:#56514A"/>
		<stop  offset="0.1573" style="stop-color:#56493A"/>
		<stop  offset="0.1683" style="stop-color:#443D36"/>
		<stop  offset="0.2529" style="stop-color:#49423C"/>
		<stop  offset="0.2723" style="stop-color:#B3ACA3"/>
		<stop  offset="0.2867" style="stop-color:#FFFFFF"/>
		<stop  offset="0.3535" style="stop-color:#FFFFFF"/>
		<stop  offset="0.3825" style="stop-color:#464038"/>
		<stop  offset="0.3943" style="stop-color:#524C43"/>
		<stop  offset="0.4262" style="stop-color:#6D655D"/>
		<stop  offset="0.4629" style="stop-color:#837B72"/>
		<stop  offset="0.5058" style="stop-color:#948B82"/>
		<stop  offset="0.5588" style="stop-color:#9F978D"/>
		<stop  offset="0.6331" style="stop-color:#A69D93"/>
		<stop  offset="0.8394" style="stop-color:#A89F95"/>
	</linearGradient>
	<path class="st3" d="M354.3,526.7l0.3-278.4c0.3-10.4,6.4-22,18.3-22h0.4c0,0,18.3,1,18.3,21.8v279.1c0,5.1-7.5,16.3-19.3,16.2l0,0
		l0,0C363.4,543.4,354.4,535.7,354.3,526.7z"/>
	
		<radialGradient id="SVGID_5_" cx="-762.5979" cy="1538.5709" r="14.2206" gradientTransform="matrix(1.087806e-02 -2.468 -5.0098 -2.208176e-02 8091.6777 -1477.7755)" gradientUnits="userSpaceOnUse">
		<stop  offset="0.2201" style="stop-color:#342417;stop-opacity:0.9"/>
		<stop  offset="0.3568" style="stop-color:#1B130C;stop-opacity:0.8118"/>
		<stop  offset="0.5301" style="stop-color:#000000;stop-opacity:0.7"/>
		<stop  offset="0.9531" style="stop-color:#000000;stop-opacity:2.565402e-02"/>
		<stop  offset="0.9692" style="stop-color:#000000;stop-opacity:0"/>
	</radialGradient>
	<polygon class="st4" points="297.8,408.2 298.1,331.8 453.1,332.5 452.8,408.8 	"/>
	
		<radialGradient id="SVGID_6_" cx="-981.5337" cy="1487.4607" r="14.2207" gradientTransform="matrix(-0.1439 -1.4346 -8.8208 1.0253 13276.8682 -2550.698)" gradientUnits="userSpaceOnUse">
		<stop  offset="0.2201" style="stop-color:#342417;stop-opacity:0.9"/>
		<stop  offset="0.3857" style="stop-color:#1B130C;stop-opacity:0.8559"/>
		<stop  offset="0.5957" style="stop-color:#000000;stop-opacity:0.8"/>
		<stop  offset="0.9555" style="stop-color:#000000;stop-opacity:2.931887e-02"/>
		<stop  offset="0.9692" style="stop-color:#000000;stop-opacity:0"/>
	</radialGradient>
	<polygon class="st5" points="431.7,344.4 436.2,388.9 163.3,420.6 158.9,376.1 	"/>
	
		<radialGradient id="SVGID_7_" cx="-748.4231" cy="1529.3369" r="14.2075" gradientTransform="matrix(1.055237e-02 -2.3941 -3.3916 -1.494917e-02 5570.2466 -1415.1373)" gradientUnits="userSpaceOnUse">
		<stop  offset="0.2201" style="stop-color:#342417"/>
		<stop  offset="0.5806" style="stop-color:#342417;stop-opacity:0.8"/>
		<stop  offset="0.6949" style="stop-color:#291D12;stop-opacity:0.5646"/>
		<stop  offset="0.8939" style="stop-color:#0D0906;stop-opacity:0.1551"/>
		<stop  offset="0.9692" style="stop-color:#000000;stop-opacity:0"/>
	</radialGradient>
	<polygon class="st6" points="322.8,390.6 323.1,316.5 428.1,317 427.8,391.1 	"/>
	
		<radialGradient id="SVGID_8_" cx="-1879.3079" cy="3742.4563" r="64.4733" fx="-1923.1941" fy="3789.6877" gradientTransform="matrix(-5.484741e-03 -0.8396 -0.3095 2.021498e-03 1519.8157 -1234.7183)" gradientUnits="userSpaceOnUse">
		<stop  offset="0.277" style="stop-color:#69635C"/>
		<stop  offset="0.4228" style="stop-color:#6C665F"/>
		<stop  offset="0.548" style="stop-color:#76706A"/>
		<stop  offset="0.6656" style="stop-color:#86817C"/>
		<stop  offset="0.7786" style="stop-color:#9D9995"/>
		<stop  offset="0.8883" style="stop-color:#BBB8B5"/>
		<stop  offset="0.9942" style="stop-color:#DFDEDC"/>
		<stop  offset="1" style="stop-color:#E1E0DE"/>
	</radialGradient>
	<path class="st7" d="M354.6,327.1l26.2-0.2c3.5-0.1,9.7,7.7,9.8,17.4l0,0c0,9.7-6.7,17.7-10.3,17.7h-25.5c-3.6,0-6.5-7.7-6.6-17.4
		l0,0C348.1,334.9,351,327.1,354.6,327.1z"/>
	
		<radialGradient id="SVGID_9_" cx="-2153.4917" cy="3321.2163" r="34.512" gradientTransform="matrix(-4.536444e-03 -0.6945 -0.3769 2.462113e-03 1617.063 -1164.615)" gradientUnits="userSpaceOnUse">
		<stop  offset="6.671875e-02" style="stop-color:#69635C"/>
		<stop  offset="0.2418" style="stop-color:#6D6760;stop-opacity:0.8925"/>
		<stop  offset="0.2598" style="stop-color:#706A64;stop-opacity:0.8713"/>
		<stop  offset="0.6123" style="stop-color:#ADAAA5;stop-opacity:0.4564"/>
		<stop  offset="0.8683" style="stop-color:#D3D1CE;stop-opacity:0.155"/>
		<stop  offset="1" style="stop-color:#E1E0DE;stop-opacity:0"/>
	</radialGradient>
	<path class="st8" d="M367.5,327l11-0.1c4.6-0.1,12.2,7.7,12.3,17.4l0,0c0.1,9.6-8.3,17.6-12.9,17.6h-10.1c-4.6,0-8.3-7.7-8.4-17.4
		l0,0C359.4,334.9,363.1,327,367.5,327z"/>
	
		<linearGradient id="SVGID_10_" gradientUnits="userSpaceOnUse" x1="-1652.6531" y1="3190.3494" x2="-1612.6827" y2="3190.3494" gradientTransform="matrix(-3.159315e-03 -0.7706 -0.6029 2.471649e-03 2205.7219 -921.4278)">
		<stop  offset="0" style="stop-color:#544A41"/>
		<stop  offset="0.342" style="stop-color:#544A41"/>
		<stop  offset="0.3796" style="stop-color:#574D44"/>
		<stop  offset="0.4099" style="stop-color:#60574E"/>
		<stop  offset="0.4377" style="stop-color:#6F675F"/>
		<stop  offset="0.464" style="stop-color:#847D77"/>
		<stop  offset="0.4892" style="stop-color:#A09A96"/>
		<stop  offset="0.5133" style="stop-color:#C1BEBB"/>
		<stop  offset="0.5183" style="stop-color:#C9C6C4"/>
		<stop  offset="0.5847" style="stop-color:#FFFFFF"/>
		<stop  offset="0.9137" style="stop-color:#FFFFFF"/>
		<stop  offset="0.9599" style="stop-color:#B3B5B7"/>
	</linearGradient>
	<path class="st9" d="M197.2,357.7l161.5,2c6.2,0,22.9-6.4,22.9-14.3v-2.2c-0.1-8-17.1-14.3-23.3-14.3l-161.4,3.3
		c-2.1,0.1-3.7,2.2-3.7,4.8l0.1,15.7C193.3,355.4,195.1,357.6,197.2,357.7z"/>
	
		<radialGradient id="SVGID_11_" cx="-1294.3206" cy="3105.6311" r="13.5998" gradientTransform="matrix(-3.901141e-03 -0.9515 -0.7853 3.219571e-03 2638.9548 -896.4067)" gradientUnits="userSpaceOnUse">
		<stop  offset="0" style="stop-color:#4F4438"/>
		<stop  offset="0.2107" style="stop-color:#4F4438"/>
		<stop  offset="0.9552" style="stop-color:#4F4438"/>
		<stop  offset="1" style="stop-color:#4F4438"/>
	</radialGradient>
	<path class="st10" d="M196,332.9L196,332.9c-1.6,0-2.8,1.9-2.8,4.9l0.1,15.4c0,2.1,2.2,4.4,3.3,4.4l0,0
		c14.7-0.1,20.4-6.3,20.4-11.5v-1C217,339.8,210.4,332.8,196,332.9z"/>
	
		<linearGradient id="SVGID_12_" gradientUnits="userSpaceOnUse" x1="226.7608" y1="2736.3174" x2="251.1006" y2="2736.3174" gradientTransform="matrix(-1 0 0 1 612 -2269.4172)">
		<stop  offset="0" style="stop-color:#F4F1E9"/>
		<stop  offset="0.1848" style="stop-color:#F0ECE4"/>
		<stop  offset="0.4017" style="stop-color:#E3DFD6"/>
		<stop  offset="0.6346" style="stop-color:#CFC9BE"/>
		<stop  offset="0.8772" style="stop-color:#B2AB9E"/>
		<stop  offset="0.9945" style="stop-color:#A29A8B"/>
	</linearGradient>
	<path class="st11" d="M360.9,466.9L360.9,466.9c0-6.8,5.5-12.2,12.2-12.2l0,0c6.8,0,12.2,5.5,12.2,12.2l0,0
		c0,6.8-5.5,12.2-12.2,12.2l0,0C366.4,479.1,360.9,473.7,360.9,466.9z"/>
	
		<radialGradient id="SVGID_13_" cx="161.6137" cy="2736.2949" r="8.9826" gradientTransform="matrix(-1.1172 0 0 1 554.4057 -2269.4172)" gradientUnits="userSpaceOnUse">
		<stop  offset="0" style="stop-color:#F4F1E9"/>
		<stop  offset="0.2572" style="stop-color:#BFB9AF"/>
		<stop  offset="0.495" style="stop-color:#958D80"/>
		<stop  offset="0.7047" style="stop-color:#766D5F"/>
		<stop  offset="0.8783" style="stop-color:#64594A"/>
		<stop  offset="0.9945" style="stop-color:#5D5243"/>
	</radialGradient>
	<path class="st12" d="M364,468.1v-2.3c0-4,3.2-7.3,7.3-7.3h4.2v16.9l0,0h-4.2C367.3,475.4,364,472.1,364,468.1z"/>
	
		<radialGradient id="SVGID_14_" cx="237.2973" cy="2811.1953" r="10.5888" gradientTransform="matrix(-1 0 0 0.9487 612 -2200.6572)" gradientUnits="userSpaceOnUse">
		<stop  offset="0.123" style="stop-color:#F4F1E9"/>
		<stop  offset="0.1598" style="stop-color:#E8E5DD"/>
		<stop  offset="0.5735" style="stop-color:#666059"/>
		<stop  offset="0.7546" style="stop-color:#322B24"/>
		<stop  offset="0.9945" style="stop-color:#322B24;stop-opacity:0"/>
	</radialGradient>
	<polygon class="st13" points="370.7,458.5 370.8,458.5 375.5,458.5 375.5,475.4 370.7,475.4 	"/>
</g>
</svg>
