<?xml version="1.0" encoding="utf-8"?>
<!-- Generator: Adobe Illustrator 20.1.0, SVG Export Plug-In . SVG Version: 6.00 Build 0)  -->
<svg version="1.1" id="Слой_1" xmlns="http://www.w3.org/2000/svg" xmlns:xlink="http://www.w3.org/1999/xlink" x="0px" y="0px"
	 viewBox="0 0 612 792" style="enable-background:new 0 0 612 792;" xml:space="preserve">
<style type="text/css">
	.st0{fill:url(#SVGID_1_);enable-background:new    ;}
	.st1{opacity:0.51;fill:url(#SVGID_2_);enable-background:new    ;}
	.st2{fill:url(#SVGID_3_);enable-background:new    ;}
	.st3{opacity:0.98;fill:url(#SVGID_4_);enable-background:new    ;}
	.st4{opacity:0.38;fill:url(#SVGID_5_);enable-background:new    ;}
	.st5{opacity:0.4;fill:url(#SVGID_6_);enable-background:new    ;}
	.st6{opacity:0.48;fill:url(#SVGID_7_);enable-background:new    ;}
	.st7{fill:url(#SVGID_8_);}
	.st8{fill:url(#SVGID_9_);}
	.st9{fill:url(#SVGID_10_);}
	.st10{fill:url(#SVGID_11_);}
	.st11{fill:url(#SVGID_12_);}
	.st12{fill:url(#SVGID_13_);}
	.st13{fill:url(#SVGID_14_);}
</style>
<linearGradient id="SVGID_1_" gradientUnits="userSpaceOnUse" x1="229.2717" y1="288.0948" x2="229.2717" y2="427.1238" gradientTransform="matrix(1.0022 0 0 -2.333 9.1624 1219.4459)">
	<stop  offset="6.478944e-02" style="stop-color:#686868"/>
	<stop  offset="0.9979" style="stop-color:#686868"/>
</linearGradient>
<path class="st0" d="M239.7,547.3L239.7,547.3L239.7,547.3c-13.9,0.1-22.8-14.8-22.8-20.1v-283c0.4-19.6,19.7-21.1,19.7-21.1l4-0.2
	c10.6,0,19.9,9.7,19.9,21.4l0.4,283.8C260.9,537.8,251.8,547.3,239.7,547.3z"/>
<linearGradient id="SVGID_2_" gradientUnits="userSpaceOnUse" x1="229.3237" y1="289.0338" x2="229.3237" y2="426.4" gradientTransform="matrix(1.0022 0 0 -2.333 9.1624 1219.4459)">
	<stop  offset="6.478944e-02" style="stop-color:#342417"/>
	<stop  offset="0.2372" style="stop-color:#675B52"/>
	<stop  offset="0.437" style="stop-color:#9D958F"/>
	<stop  offset="0.6203" style="stop-color:#C7C3BF"/>
	<stop  offset="0.7807" style="stop-color:#E6E4E2"/>
	<stop  offset="0.912" style="stop-color:#F8F8F7"/>
	<stop  offset="0.9979" style="stop-color:#FFFFFF"/>
</linearGradient>
<path class="st1" d="M239.8,545.1L239.8,545.1L239.8,545.1c-13.3,0.1-21.8-13-21.8-19.9V245.7c0.4-19.4,18.8-20.8,18.8-20.8l3.8-0.2
	c10.1,0,19.1,9.6,19.1,21.2l0.4,280.4C260,535.7,251.3,545.1,239.8,545.1z"/>
<linearGradient id="SVGID_3_" gradientUnits="userSpaceOnUse" x1="209.3127" y1="357.7218" x2="249.3204" y2="357.7218" gradientTransform="matrix(1.0022 0 0 -2.333 9.1624 1219.4459)">
	<stop  offset="0" style="stop-color:#746E66"/>
	<stop  offset="0.7999" style="stop-color:#342417"/>
	<stop  offset="0.8387" style="stop-color:#342417"/>
	<stop  offset="0.902" style="stop-color:#18100A;stop-opacity:0.6022"/>
	<stop  offset="0.9573" style="stop-color:#060403;stop-opacity:0.255"/>
	<stop  offset="0.9979" style="stop-color:#000000;stop-opacity:0"/>
</linearGradient>
<path class="st2" d="M259,523.8l-0.9,0.9l0,0l-37.8,0.5l-1.4-1.6V246.9c0-1.3,1-2.3,2.3-2.3l35.8,0.2l1.7,1.6l0,0L259,523.8
	L259,523.8z"/>
<linearGradient id="SVGID_4_" gradientUnits="userSpaceOnUse" x1="255.1516" y1="287.0195" x2="255.1516" y2="425.3154" gradientTransform="matrix(0.8875 0 0 -2.2932 12.5323 1201.6293)">
	<stop  offset="0" style="stop-color:#423C35"/>
	<stop  offset="5.083698e-02" style="stop-color:#423C35"/>
	<stop  offset="6.119156e-02" style="stop-color:#56493A"/>
	<stop  offset="7.443526e-02" style="stop-color:#5B534B"/>
	<stop  offset="0.1487" style="stop-color:#56514A"/>
	<stop  offset="0.1573" style="stop-color:#56493A"/>
	<stop  offset="0.1683" style="stop-color:#443D36"/>
	<stop  offset="0.2529" style="stop-color:#49423C"/>
	<stop  offset="0.2723" style="stop-color:#B3ACA3"/>
	<stop  offset="0.2867" style="stop-color:#FFFFFF"/>
	<stop  offset="0.3535" style="stop-color:#FFFFFF"/>
	<stop  offset="0.3825" style="stop-color:#464038"/>
	<stop  offset="0.3943" style="stop-color:#524C43"/>
	<stop  offset="0.4262" style="stop-color:#6D655D"/>
	<stop  offset="0.4629" style="stop-color:#837B72"/>
	<stop  offset="0.5058" style="stop-color:#948B82"/>
	<stop  offset="0.5588" style="stop-color:#9F978D"/>
	<stop  offset="0.6331" style="stop-color:#A69D93"/>
	<stop  offset="0.8394" style="stop-color:#A89F95"/>
</linearGradient>
<path class="st3" d="M239.7,543.4L239.7,543.4L239.7,543.4c-11.8,0.1-19.3-11.1-19.3-16.2V248.1c0-20.8,18.3-21.8,18.3-21.8h0.4
	c11.9,0,18,11.6,18.3,22l0.3,278.4C257.6,535.7,248.6,543.4,239.7,543.4z"/>
<radialGradient id="SVGID_5_" cx="369.08" cy="521.7836" r="14.2173" gradientTransform="matrix(-1.087806e-02 -2.468 -5.0098 2.208176e-02 2854.5964 1269.6915)" gradientUnits="userSpaceOnUse">
	<stop  offset="0.2201" style="stop-color:#342417;stop-opacity:0.9"/>
	<stop  offset="0.3568" style="stop-color:#1B130C;stop-opacity:0.8118"/>
	<stop  offset="0.5301" style="stop-color:#000000;stop-opacity:0.7"/>
	<stop  offset="0.9531" style="stop-color:#000000;stop-opacity:2.565402e-02"/>
	<stop  offset="0.9692" style="stop-color:#000000;stop-opacity:0"/>
</radialGradient>
<polygon class="st4" points="159.2,408.8 158.9,332.5 313.9,331.8 314.2,408.2 "/>
<radialGradient id="SVGID_6_" cx="417.1043" cy="527.8977" r="14.2099" gradientTransform="matrix(0.1439 -1.4346 -8.8208 -1.0253 4910.937 1522.0996)" gradientUnits="userSpaceOnUse">
	<stop  offset="0.2201" style="stop-color:#342417;stop-opacity:0.9"/>
	<stop  offset="0.3857" style="stop-color:#1B130C;stop-opacity:0.8559"/>
	<stop  offset="0.5957" style="stop-color:#000000;stop-opacity:0.8"/>
	<stop  offset="0.9555" style="stop-color:#000000;stop-opacity:2.931887e-02"/>
	<stop  offset="0.9692" style="stop-color:#000000;stop-opacity:0"/>
</radialGradient>
<polygon class="st5" points="453.1,376.1 448.7,420.6 175.8,388.9 180.3,344.4 "/>
<radialGradient id="SVGID_7_" cx="397.4815" cy="594.4501" r="14.2036" gradientTransform="matrix(-1.055237e-02 -2.3941 -3.3916 1.494917e-02 2256.8625 1296.4904)" gradientUnits="userSpaceOnUse">
	<stop  offset="0.2201" style="stop-color:#342417"/>
	<stop  offset="0.5806" style="stop-color:#342417;stop-opacity:0.8"/>
	<stop  offset="0.6949" style="stop-color:#291D12;stop-opacity:0.5646"/>
	<stop  offset="0.8939" style="stop-color:#0D0906;stop-opacity:0.1551"/>
	<stop  offset="0.9692" style="stop-color:#000000;stop-opacity:0"/>
</radialGradient>
<polygon class="st6" points="184.2,391.1 183.9,317 288.9,316.5 289.2,390.6 "/>
<radialGradient id="SVGID_8_" cx="137.0579" cy="376.8155" r="64.4733" fx="93.1716" fy="424.0469" gradientTransform="matrix(5.484741e-03 -0.8396 -0.3095 -2.021498e-03 356.0398 466.5496)" gradientUnits="userSpaceOnUse">
	<stop  offset="0.277" style="stop-color:#69635C"/>
	<stop  offset="0.4228" style="stop-color:#6C665F"/>
	<stop  offset="0.548" style="stop-color:#76706A"/>
	<stop  offset="0.6656" style="stop-color:#86817C"/>
	<stop  offset="0.7786" style="stop-color:#9D9995"/>
	<stop  offset="0.8883" style="stop-color:#BBB8B5"/>
	<stop  offset="0.9942" style="stop-color:#DFDEDC"/>
	<stop  offset="1" style="stop-color:#E1E0DE"/>
</radialGradient>
<path class="st7" d="M263.8,344.6L263.8,344.6c-0.1,9.7-3,17.4-6.6,17.4l-25.5,0c-3.6,0-10.3-8-10.3-17.7l0,0
	c0.1-9.7,6.3-17.5,9.8-17.4l26.2,0.2C261,327.1,263.9,334.9,263.8,344.6z"/>
<radialGradient id="SVGID_9_" cx="143.9568" cy="406.041" r="34.4772" gradientTransform="matrix(4.536444e-03 -0.6945 -0.3769 -2.462113e-03 389.3366 440.14)" gradientUnits="userSpaceOnUse">
	<stop  offset="6.671875e-02" style="stop-color:#69635C"/>
	<stop  offset="0.2418" style="stop-color:#6D6760;stop-opacity:0.8925"/>
	<stop  offset="0.2598" style="stop-color:#706A64;stop-opacity:0.8713"/>
	<stop  offset="0.6123" style="stop-color:#ADAAA5;stop-opacity:0.4564"/>
	<stop  offset="0.8683" style="stop-color:#D3D1CE;stop-opacity:0.155"/>
	<stop  offset="1" style="stop-color:#E1E0DE;stop-opacity:0"/>
</radialGradient>
<path class="st8" d="M252.6,344.5L252.6,344.5c-0.1,9.7-3.8,17.4-8.4,17.4l-10.1,0c-4.6,0-13-8-12.9-17.6l0,0
	c0.1-9.7,7.7-17.5,12.3-17.4l11,0.1C248.9,327,252.6,334.9,252.6,344.5z"/>
<linearGradient id="SVGID_10_" gradientUnits="userSpaceOnUse" x1="486.355" y1="-142.3117" x2="526.3038" y2="-142.3117" gradientTransform="matrix(3.159315e-03 -0.7706 -0.6029 -2.471649e-03 237.1981 734.4086)">
	<stop  offset="0" style="stop-color:#544A41"/>
	<stop  offset="0.342" style="stop-color:#544A41"/>
	<stop  offset="0.3796" style="stop-color:#574D44"/>
	<stop  offset="0.4099" style="stop-color:#60574E"/>
	<stop  offset="0.4377" style="stop-color:#6F675F"/>
	<stop  offset="0.464" style="stop-color:#847D77"/>
	<stop  offset="0.4892" style="stop-color:#A09A96"/>
	<stop  offset="0.5133" style="stop-color:#C1BEBB"/>
	<stop  offset="0.5183" style="stop-color:#C9C6C4"/>
	<stop  offset="0.5847" style="stop-color:#FFFFFF"/>
	<stop  offset="0.9137" style="stop-color:#FFFFFF"/>
	<stop  offset="0.9599" style="stop-color:#B3B5B7"/>
</linearGradient>
<path class="st9" d="M418.7,352.7l0.1-15.7c0-2.6-1.6-4.7-3.7-4.8l-161.4-3.3c-6.2,0-23.2,6.3-23.3,14.3l0,2.2
	c0,7.9,16.7,14.3,22.9,14.3l161.5-2C416.9,357.6,418.7,355.4,418.7,352.7z"/>
<radialGradient id="SVGID_11_" cx="565.5707" cy="-317.8572" r="13.5998" gradientTransform="matrix(3.901141e-03 -0.9515 -0.7853 -3.219571e-03 155.0284 882.2552)" gradientUnits="userSpaceOnUse">
	<stop  offset="0" style="stop-color:#4F4438"/>
	<stop  offset="0.2107" style="stop-color:#4F4438"/>
	<stop  offset="0.9552" style="stop-color:#4F4438"/>
	<stop  offset="1" style="stop-color:#4F4438"/>
</radialGradient>
<path class="st10" d="M395,345.1l0,1c0,5.2,5.7,11.4,20.4,11.5l0,0c1.1,0,3.3-2.3,3.3-4.4l0.1-15.4c0-3-1.2-4.9-2.8-4.9l0,0
	C401.6,332.8,395,339.8,395,345.1z"/>
<linearGradient id="SVGID_12_" gradientUnits="userSpaceOnUse" x1="226.7608" y1="325.0839" x2="251.1006" y2="325.0839" gradientTransform="matrix(1 0 0 -1 0 792)">
	<stop  offset="0" style="stop-color:#F4F1E9"/>
	<stop  offset="0.1848" style="stop-color:#F0ECE4"/>
	<stop  offset="0.4017" style="stop-color:#E3DFD6"/>
	<stop  offset="0.6346" style="stop-color:#CFC9BE"/>
	<stop  offset="0.8772" style="stop-color:#B2AB9E"/>
	<stop  offset="0.9945" style="stop-color:#A29A8B"/>
</linearGradient>
<path class="st11" d="M238.9,479.1L238.9,479.1c-6.7,0-12.2-5.4-12.2-12.2l0,0c0-6.7,5.4-12.2,12.2-12.2l0,0
	c6.7,0,12.2,5.4,12.2,12.2l0,0C251.1,473.7,245.6,479.1,238.9,479.1z"/>
<radialGradient id="SVGID_13_" cx="232.005" cy="325.1225" r="8.9826" gradientTransform="matrix(1.1172 0 0 -1 -21.0469 792)" gradientUnits="userSpaceOnUse">
	<stop  offset="0" style="stop-color:#F4F1E9"/>
	<stop  offset="0.2572" style="stop-color:#BFB9AF"/>
	<stop  offset="0.495" style="stop-color:#958D80"/>
	<stop  offset="0.7047" style="stop-color:#766D5F"/>
	<stop  offset="0.8783" style="stop-color:#64594A"/>
	<stop  offset="0.9945" style="stop-color:#5D5243"/>
</radialGradient>
<path class="st12" d="M240.7,475.4h-4.2l0,0v-16.9h4.2c4.1,0,7.3,3.3,7.3,7.3v2.3C248,472.1,244.7,475.4,240.7,475.4z"/>
<radialGradient id="SVGID_14_" cx="237.2973" cy="311.542" r="10.5888" gradientTransform="matrix(1 0 0 -0.9487 0 761.8835)" gradientUnits="userSpaceOnUse">
	<stop  offset="0.123" style="stop-color:#F4F1E9"/>
	<stop  offset="0.1598" style="stop-color:#E8E5DD"/>
	<stop  offset="0.5735" style="stop-color:#666059"/>
	<stop  offset="0.7546" style="stop-color:#322B24"/>
	<stop  offset="0.9945" style="stop-color:#322B24;stop-opacity:0"/>
</radialGradient>
<polygon class="st13" points="241.3,475.4 236.5,475.4 236.5,458.5 241.2,458.5 241.3,458.5 "/>
</svg>
