<?xml version="1.0" encoding="utf-8"?>
<!-- Generator: Adobe Illustrator 20.1.0, SVG Export Plug-In . SVG Version: 6.00 Build 0)  -->
<svg version="1.1" id="Слой_1" xmlns="http://www.w3.org/2000/svg" xmlns:xlink="http://www.w3.org/1999/xlink" x="0px" y="0px"
	 viewBox="0 0 612 792" style="enable-background:new 0 0 612 792;" xml:space="preserve">
<style type="text/css">
	.st0{opacity:0.27;fill:url(#SVGID_1_);enable-background:new    ;}
	.st1{opacity:0.28;fill:url(#SVGID_2_);enable-background:new    ;}
	.st2{opacity:0.39;fill:url(#SVGID_3_);enable-background:new    ;}
	.st3{opacity:0.51;fill:url(#SVGID_4_);enable-background:new    ;}
	.st4{opacity:0.9;fill:url(#_x31_234_1_);enable-background:new    ;}
	.st5{opacity:0.9;fill:url(#SVGID_5_);enable-background:new    ;}
	.st6{fill:url(#SVGID_6_);}
	.st7{fill:url(#поменять_1_);}
	.st8{fill:url(#SVGID_7_);}
	.st9{fill:url(#SVGID_8_);}
	.st10{fill:url(#SVGID_9_);}
	.st11{opacity:0.44;fill:url(#SVGID_10_);enable-background:new    ;}
	.st12{fill:url(#SVGID_11_);}
	.st13{opacity:0.44;fill:url(#SVGID_12_);enable-background:new    ;}
	.st14{fill:url(#SVGID_13_);}
	.st15{fill:url(#SVGID_14_);}
	.st16{fill:url(#SVGID_15_);}
	.st17{opacity:0.6;fill:url(#SVGID_16_);enable-background:new    ;}
</style>
<radialGradient id="SVGID_1_" cx="103.7052" cy="215.2673" r="14.2187" gradientTransform="matrix(2.5731 0 0 5.969 8.0708 -986.0808)" gradientUnits="userSpaceOnUse">
	<stop  offset="0.2201" style="stop-color:#342417;stop-opacity:0.9"/>
	<stop  offset="0.3568" style="stop-color:#1B130C;stop-opacity:0.8118"/>
	<stop  offset="0.5301" style="stop-color:#000000;stop-opacity:0.7"/>
	<stop  offset="0.9531" style="stop-color:#000000;stop-opacity:2.565402e-02"/>
	<stop  offset="0.9692" style="stop-color:#000000;stop-opacity:0"/>
</radialGradient>
<rect x="235.1" y="206.5" class="st0" width="79.6" height="184.7"/>
<radialGradient id="SVGID_2_" cx="124.338" cy="236.6534" r="14.2109" gradientTransform="matrix(1.5446 -3.639121e-02 0.3959 11.9437 17.5786 -2395.8772)" gradientUnits="userSpaceOnUse">
	<stop  offset="0.2201" style="stop-color:#342417;stop-opacity:0.9"/>
	<stop  offset="0.3857" style="stop-color:#1B130C;stop-opacity:0.8559"/>
	<stop  offset="0.5957" style="stop-color:#000000;stop-opacity:0.8"/>
	<stop  offset="0.9555" style="stop-color:#000000;stop-opacity:2.931887e-02"/>
	<stop  offset="0.9692" style="stop-color:#000000;stop-opacity:0"/>
</radialGradient>
<polygon class="st1" points="333.4,610.3 285.5,611.5 273.3,241.9 321.1,240.8 "/>
<radialGradient id="SVGID_3_" cx="130.983" cy="124.8857" r="14.2053" gradientTransform="matrix(2.388 -0.1713 0.3544 4.9405 -61.7293 -302.5635)" gradientUnits="userSpaceOnUse">
	<stop  offset="0.2201" style="stop-color:#342417"/>
	<stop  offset="0.5806" style="stop-color:#342417;stop-opacity:0.8"/>
	<stop  offset="0.6949" style="stop-color:#291D12;stop-opacity:0.5646"/>
	<stop  offset="0.8939" style="stop-color:#0D0906;stop-opacity:0.1551"/>
	<stop  offset="0.9692" style="stop-color:#000000;stop-opacity:0"/>
</radialGradient>
<polygon class="st2" points="252.9,218.2 326.8,212.9 337.7,365.8 263.8,371.1 "/>
<radialGradient id="SVGID_4_" cx="274.2783" cy="101.3196" r="70.2122" gradientTransform="matrix(1.0112 0 0 1.023 9.3998 189.05)" gradientUnits="userSpaceOnUse">
	<stop  offset="0.277" style="stop-color:#342417"/>
	<stop  offset="0.7999" style="stop-color:#342417"/>
	<stop  offset="0.8387" style="stop-color:#342417"/>
	<stop  offset="0.902" style="stop-color:#18100A;stop-opacity:0.6022"/>
	<stop  offset="0.9573" style="stop-color:#060403;stop-opacity:0.255"/>
	<stop  offset="0.9979" style="stop-color:#000000;stop-opacity:0"/>
</radialGradient>
<path class="st3" d="M287,364.5h-0.5c-11.5,0-20.8-9.3-20.8-20.8v-102c0-11.5,9.3-20.8,20.8-20.8h0.5c11.5,0,20.8,9.3,20.8,20.8v102
	C307.8,355.1,298.5,364.5,287,364.5z"/>
<radialGradient id="_x31_234_1_" cx="311.9729" cy="90.2515" r="65.7841" fx="250.5541" fy="113.8158" gradientTransform="matrix(1 0 0 1 0 196)" gradientUnits="userSpaceOnUse">
	<stop  offset="0.2299" style="stop-color:#69635C"/>
	<stop  offset="0.4826" style="stop-color:#6C665F"/>
	<stop  offset="0.548" style="stop-color:#76706A"/>
	<stop  offset="0.6656" style="stop-color:#86817C"/>
	<stop  offset="0.7786" style="stop-color:#9D9995"/>
	<stop  offset="0.94" style="stop-color:#BBB8B5"/>
	<stop  offset="0.9942" style="stop-color:#DFDEDC"/>
	<stop  offset="1" style="stop-color:#E1E0DE"/>
</radialGradient>
<path id="_x31_234" class="st4" d="M289.3,362.2L289.3,362.2c-11.5,0-20.8-9.3-20.8-20.8v-98.8c0-11.5,9.3-20.8,20.8-20.8l0,0
	c11.5,0,20.8,9.3,20.8,20.8v98.8C310.1,352.8,300.8,362.2,289.3,362.2z"/>
<radialGradient id="SVGID_5_" cx="265.9729" cy="108.9515" r="82.3494" fx="189.0881" fy="138.4495" gradientTransform="matrix(1 0 0 1 0 196)" gradientUnits="userSpaceOnUse">
	<stop  offset="0.2299" style="stop-color:#69635C"/>
	<stop  offset="0.4826" style="stop-color:#6C665F"/>
	<stop  offset="0.548" style="stop-color:#76706A"/>
	<stop  offset="0.6656" style="stop-color:#86817C"/>
	<stop  offset="0.7786" style="stop-color:#9D9995"/>
	<stop  offset="0.94" style="stop-color:#BBB8B5"/>
	<stop  offset="0.9942" style="stop-color:#DFDEDC"/>
	<stop  offset="1" style="stop-color:#E1E0DE"/>
</radialGradient>
<path class="st5" d="M289.3,362.9L289.3,362.9c-11.5,0-20.8-9.3-20.8-20.8v-98.8c0-11.5,9.3-20.8,20.8-20.8l0,0
	c11.5,0,20.8,9.3,20.8,20.8v98.8C310.1,353.5,300.8,362.9,289.3,362.9z"/>
<radialGradient id="SVGID_6_" cx="355.3401" cy="81.7449" r="34.4609" gradientTransform="matrix(0.8382 0 0 0.8608 -2.4925 228.7963)" gradientUnits="userSpaceOnUse">
	<stop  offset="6.671875e-02" style="stop-color:#69635C"/>
	<stop  offset="0.3499" style="stop-color:#6D6760;stop-opacity:0.8925"/>
	<stop  offset="0.4278" style="stop-color:#706A64;stop-opacity:0.8713"/>
	<stop  offset="0.7841" style="stop-color:#ADAAA5;stop-opacity:0.4564"/>
	<stop  offset="0.8981" style="stop-color:#D3D1CE;stop-opacity:0.155"/>
	<stop  offset="1" style="stop-color:#E1E0DE;stop-opacity:0"/>
</radialGradient>
<path class="st6" d="M289,334.9L289,334.9c-11.7,0-21.1-8.4-21.1-18.9v-34.1c0-10.4,9.4-18.9,21.1-18.9l0,0
	c11.7,0,21.1,8.4,21.1,18.9V316C310.1,326.3,300.7,334.9,289,334.9z"/>
<linearGradient id="поменять_1_" gradientUnits="userSpaceOnUse" x1="255.382" y1="216.6748" x2="295.4306" y2="216.6748" gradientTransform="matrix(0.9987 5.166911e-02 -5.166911e-02 0.9987 17.4656 198.5148)">
	<stop  offset="0.1207" style="stop-color:#504D4B"/>
	<stop  offset="0.4353" style="stop-color:#807A75"/>
	<stop  offset="0.5183" style="stop-color:#C9C6C4"/>
	<stop  offset="0.5847" style="stop-color:#FFFFFF"/>
	<stop  offset="0.7602" style="stop-color:#FFFFFF"/>
	<stop  offset="0.978" style="stop-color:#B3B5B7"/>
</linearGradient>
<path id="поменять" class="st7" d="M263.4,584.5l20.4,1.1c3.4,0.2,6.2-2.4,6.5-5.8l18.2-287c0.5-10.3-7.3-19-17.6-19.5
	l-2.9-0.1c-10.3-0.5-19,7.3-19.5,17.6l-11.2,287.1C257.1,581.3,259.9,584.3,263.4,584.5z"/>
<linearGradient id="SVGID_7_" gradientUnits="userSpaceOnUse" x1="295.4905" y1="216.6842" x2="255.4419" y2="216.6574" gradientTransform="matrix(0.9987 5.166911e-02 -5.166911e-02 0.9987 17.4656 198.5148)">
	<stop  offset="0.1207" style="stop-color:#504D4B"/>
	<stop  offset="0.4353" style="stop-color:#807A75"/>
	<stop  offset="0.5183" style="stop-color:#C9C6C4"/>
	<stop  offset="0.5847" style="stop-color:#FFFFFF"/>
	<stop  offset="0.7602" style="stop-color:#FFFFFF"/>
	<stop  offset="0.978" style="stop-color:#B3B5B7"/>
</linearGradient>
<path class="st8" d="M263.4,584.5l20.4,1.1c3.4,0.2,6.2-2.4,6.5-5.8l18.2-287c0.5-10.3-7.3-19-17.6-19.5l-2.9-0.1
	c-10.3-0.5-19,7.3-19.5,17.6l-11.2,287.1C257.1,581.3,259.9,584.3,263.4,584.5z"/>
<radialGradient id="SVGID_8_" cx="276.3954" cy="349.4142" r="13.4609" gradientTransform="matrix(0.9987 5.166911e-02 -5.166911e-02 0.9987 17.4656 198.5148)" gradientUnits="userSpaceOnUse">
	<stop  offset="0" style="stop-color:#6E6A66"/>
	<stop  offset="0.2107" style="stop-color:#726F6E"/>
	<stop  offset="0.9552" style="stop-color:#797675"/>
	<stop  offset="1" style="stop-color:#797675"/>
</radialGradient>
<path class="st9" d="M276.7,538.3l-1-0.1c-5.5-0.3-12,13.4-13.5,42.4l0,0c-0.1,2.2,1.6,4.1,3.8,4.2l16.7,0.9
	c2.2,0.1,4.1-1.6,4.2-3.8l0.1-1.2C288.2,552.3,282.2,538.6,276.7,538.3z"/>
<linearGradient id="SVGID_9_" gradientUnits="userSpaceOnUse" x1="259.6823" y1="128.5397" x2="291.1295" y2="128.5397" gradientTransform="matrix(0.9987 5.166911e-02 -5.166911e-02 0.9987 17.4656 198.5148)">
	<stop  offset="0" style="stop-color:#282523"/>
	<stop  offset="0.4353" style="stop-color:#282523"/>
	<stop  offset="0.5847" style="stop-color:#565655"/>
	<stop  offset="0.9945" style="stop-color:#565655"/>
</linearGradient>
<path class="st10" d="M285.6,366.9l-1.3-0.1c-4.1-0.2-14.7-18.2-14-31.9l0.2-4.3c0.5-8.9,8-15.7,16.9-15.2l0,0
	c8.3,0.4,15,8.8,14.6,15l-0.3,5.6C301.2,349,289.7,367.1,285.6,366.9z"/>
<linearGradient id="SVGID_10_" gradientUnits="userSpaceOnUse" x1="262.2133" y1="125.4914" x2="288.5775" y2="125.4914" gradientTransform="matrix(0.9987 5.166911e-02 -5.166911e-02 0.9987 17.4656 198.5148)">
	<stop  offset="0" style="stop-color:#9D9D9B"/>
	<stop  offset="0.4353" style="stop-color:#9D9D9B"/>
	<stop  offset="0.4628" style="stop-color:#5F5E5C"/>
	<stop  offset="0.4903" style="stop-color:#252321"/>
	<stop  offset="0.9203" style="stop-color:#252321"/>
	<stop  offset="0.9945" style="stop-color:#252321"/>
</linearGradient>
<path class="st11" d="M285.8,359.4l-1.1-0.1c-3.4-0.2-12.3-15.1-11.8-26.3l0.2-3.6c0.4-7.3,6.7-13,14.2-12.6l0,0
	c7,0.4,12.5,7.3,12.3,12.4l-0.2,4.6C298.9,344.6,289.3,359.5,285.8,359.4z"/>
<linearGradient id="SVGID_11_" gradientUnits="userSpaceOnUse" x1="291.0381" y1="128.5363" x2="259.5922" y2="128.5152" gradientTransform="matrix(0.9987 5.166911e-02 -5.166911e-02 0.9987 17.4656 198.5148)">
	<stop  offset="0" style="stop-color:#282523"/>
	<stop  offset="0.4353" style="stop-color:#282523"/>
	<stop  offset="0.5847" style="stop-color:#565655"/>
	<stop  offset="0.9945" style="stop-color:#565655"/>
</linearGradient>
<path class="st12" d="M285.9,366.9l-1.3-0.1c-4.1-0.2-14.7-18.2-14-31.9l0.2-4.3c0.5-8.9,8-15.7,16.9-15.2l0,0
	c8.3,0.4,15,8.8,14.6,15L302,336C301.5,349,290,367.1,285.9,366.9z"/>
<linearGradient id="SVGID_12_" gradientUnits="userSpaceOnUse" x1="288.5515" y1="126.28" x2="262.1877" y2="126.2624" gradientTransform="matrix(0.9987 5.166911e-02 -5.166911e-02 0.9987 17.4656 198.5148)">
	<stop  offset="0" style="stop-color:#9D9D9B"/>
	<stop  offset="0.4353" style="stop-color:#9D9D9B"/>
	<stop  offset="0.4628" style="stop-color:#5F5E5C"/>
	<stop  offset="0.4903" style="stop-color:#252321"/>
	<stop  offset="0.9203" style="stop-color:#252321"/>
	<stop  offset="0.9945" style="stop-color:#252321"/>
</linearGradient>
<path class="st13" d="M286,360.2l-1.1-0.1c-3.4-0.2-12.3-15.1-11.8-26.3l0.2-3.6c0.4-7.3,6.7-13,14.2-12.6l0,0
	c7,0.4,12.5,7.3,12.3,12.4l-0.2,4.6C299.1,345.4,289.5,360.3,286,360.2z"/>
<linearGradient id="SVGID_13_" gradientUnits="userSpaceOnUse" x1="263.2772" y1="118.8084" x2="287.617" y2="118.8084" gradientTransform="matrix(0.9987 5.166911e-02 -5.166911e-02 0.9987 17.4656 198.5148)">
	<stop  offset="0" style="stop-color:#F4F1E9"/>
	<stop  offset="0.1848" style="stop-color:#F0ECE4"/>
	<stop  offset="0.4017" style="stop-color:#E3DFD6"/>
	<stop  offset="0.6346" style="stop-color:#CFC9BE"/>
	<stop  offset="0.8772" style="stop-color:#B2AB9E"/>
	<stop  offset="0.9945" style="stop-color:#A29A8B"/>
</linearGradient>
<path class="st14" d="M285.8,343.6L285.8,343.6c-6.7-0.3-11.9-6-11.6-12.8l0,0c0.3-6.7,6-11.9,12.8-11.6l0,0
	c6.7,0.3,11.9,6,11.6,12.8l0,0C298.2,338.9,292.5,344,285.8,343.6z"/>
<radialGradient id="SVGID_14_" cx="240.5974" cy="119.3547" r="8.9826" gradientTransform="matrix(1.1157 5.772474e-02 -5.166911e-02 0.9987 23.1278 198.8079)" gradientUnits="userSpaceOnUse">
	<stop  offset="0" style="stop-color:#F4F1E9"/>
	<stop  offset="0.2572" style="stop-color:#BFB9AF"/>
	<stop  offset="0.495" style="stop-color:#958D80"/>
	<stop  offset="0.7047" style="stop-color:#766D5F"/>
	<stop  offset="0.8783" style="stop-color:#64594A"/>
	<stop  offset="0.9945" style="stop-color:#5D5243"/>
</radialGradient>
<path class="st15" d="M287.5,340.5l-4.2-0.2l0,0l0.9-16.9l4.2,0.2c4.1,0.2,7.1,3.7,6.9,7.7l-0.1,2.3
	C295,337.6,291.5,340.7,287.5,340.5z"/>
<radialGradient id="SVGID_15_" cx="273.6133" cy="114.1359" r="10.5888" gradientTransform="matrix(0.9987 5.166911e-02 -4.901849e-02 0.9474 16.9223 209.0614)" gradientUnits="userSpaceOnUse">
	<stop  offset="0.123" style="stop-color:#F4F1E9"/>
	<stop  offset="0.1598" style="stop-color:#E8E5DD"/>
	<stop  offset="0.5735" style="stop-color:#666059"/>
	<stop  offset="0.7546" style="stop-color:#322B24"/>
	<stop  offset="0.9945" style="stop-color:#322B24;stop-opacity:0"/>
</radialGradient>
<polygon class="st16" points="288.1,340.6 283.3,340.3 284.2,323.4 288.9,323.7 289,323.7 "/>
<linearGradient id="SVGID_16_" gradientUnits="userSpaceOnUse" x1="258.5916" y1="94.4678" x2="283.1922" y2="94.4678" gradientTransform="matrix(0.9959 9.081236e-02 -9.799127e-02 1.0746 35.437 175.3856)">
	<stop  offset="0" style="stop-color:#807A75"/>
	<stop  offset="0.4353" style="stop-color:#807A75"/>
	<stop  offset="0.5847" style="stop-color:#5C5C5C"/>
	<stop  offset="0.978" style="stop-color:#5C5C5C"/>
</linearGradient>
<path class="st17" d="M305.5,332.1l-5.9-25.5c-1.2-5.3-2.4-12.3-4.5-18.3l-8.7-17.4l11,3.4c7.4,3,11.7,9.7,11.9,16.9L305.5,332.1z"
	/>
</svg>
